<?xml version="1.0" standalone="no"?>
<!DOCTYPE svg PUBLIC "-//W3C//DTD SVG 20010904//EN"
 "http://www.w3.org/TR/2001/REC-SVG-20010904/DTD/svg10.dtd">
<svg version="1.0" xmlns="http://www.w3.org/2000/svg"
 width="339.000000pt" height="282.000000pt" viewBox="0 0 339.000000 282.000000"
 preserveAspectRatio="xMidYMid meet">

<g transform="translate(0.000000,282.000000) scale(0.100000,-0.100000)"
fill="#000000" stroke="none">
<path d="M1029 2792 c-96 -43 -168 -208 -154 -353 7 -65 46 -151 77 -166 41
-20 88 -23 116 -9 36 18 98 86 107 117 4 13 11 29 15 34 9 11 29 114 31 155 3
70 -31 169 -69 203 -19 17 -99 30 -123 19z"/>
<path d="M468 2783 c-58 -9 -113 -123 -109 -223 2 -48 22 -139 36 -167 8 -15
15 -32 15 -36 0 -14 74 -88 102 -103 28 -14 75 -11 116 9 31 15 70 101 77 166
11 119 -37 261 -111 324 -33 28 -76 39 -126 30z"/>
<path d="M1354 2308 c-27 -18 -63 -52 -80 -75 -66 -87 -99 -249 -68 -337 19
-54 37 -72 88 -86 35 -10 49 -9 77 3 132 59 222 269 180 424 -14 49 -30 68
-78 88 -50 21 -65 19 -119 -17z"/>
<path d="M96 2310 c-46 -23 -52 -31 -67 -85 -34 -121 17 -286 116 -378 50 -47
91 -61 141 -47 51 14 69 32 88 86 31 88 -2 250 -68 337 -37 49 -119 107 -150
107 -11 -1 -39 -10 -60 -20z"/>
<path d="M714 2167 c-26 -15 -98 -97 -128 -146 -25 -41 -59 -147 -77 -235 -9
-50 -18 -65 -52 -95 -84 -74 -87 -79 -87 -146 0 -54 3 -64 28 -87 40 -39 102
-67 168 -78 104 -17 134 -13 224 32 76 37 92 42 147 40 127 -5 232 26 296 86
24 23 27 33 27 89 0 62 -1 63 -47 105 -74 68 -97 93 -118 129 -153 255 -285
361 -381 306z"/>
<path d="M2849 1422 c-96 -43 -168 -208 -154 -353 7 -65 46 -151 77 -166 41
-20 88 -23 116 -9 36 18 98 86 107 117 4 13 11 29 15 34 9 11 29 114 31 155 3
70 -31 169 -69 203 -19 17 -99 30 -123 19z"/>
<path d="M2288 1413 c-58 -9 -113 -123 -109 -223 2 -48 22 -139 36 -167 8 -15
15 -32 15 -36 0 -14 74 -88 102 -103 28 -14 75 -11 116 9 31 15 70 101 77 166
11 119 -37 261 -111 324 -33 28 -76 39 -126 30z"/>
<path d="M3174 938 c-27 -18 -63 -52 -80 -75 -66 -87 -99 -249 -68 -337 19
-54 37 -72 88 -86 35 -10 49 -9 77 3 132 59 222 269 180 424 -14 49 -30 68
-78 88 -50 21 -65 19 -119 -17z"/>
<path d="M1916 940 c-46 -23 -52 -31 -67 -85 -34 -121 17 -286 116 -378 50
-47 91 -61 141 -47 51 14 69 32 88 86 31 88 -2 250 -68 337 -37 49 -119 107
-150 107 -11 -1 -39 -10 -60 -20z"/>
<path d="M2534 797 c-26 -15 -98 -97 -128 -146 -25 -41 -59 -147 -77 -235 -9
-50 -18 -65 -52 -95 -84 -74 -87 -79 -87 -146 0 -54 3 -64 28 -87 40 -39 102
-67 168 -78 104 -17 134 -13 224 32 76 37 92 42 147 40 127 -5 232 26 296 86
24 23 27 33 27 89 0 62 -1 63 -47 105 -74 68 -97 93 -118 129 -153 255 -285
361 -381 306z"/>
</g>
</svg>
